<svg version="1.0" xmlns="http://www.w3.org/2000/svg"
 width="486.000000pt" height="288.000000pt" viewBox="0 0 486.000000 288.000000"
 preserveAspectRatio="xMidYMid meet">

<g transform="translate(0.000000,288.000000) scale(0.100000,-0.100000)"
fill="#000000" stroke="none">
<path d="M202 1613 l3 -1068 2205 0 2205 0 3 1068 2 1067 -2210 0 -2210 0 2
-1067z m4366 0 l-3 -1018 -2155 0 -2155 0 -3 1018 -2 1017 2160 0 2160 0 -2
-1017z"/>
<path d="M2343 2399 c-76 -7 -193 -62 -242 -113 l-33 -34 -57 44 -56 44 -3
-237 c-3 -249 1 -280 49 -374 30 -60 117 -147 183 -183 83 -46 150 -60 258
-54 77 5 100 11 164 42 199 99 302 315 249 519 -61 236 -263 372 -512 346z
m138 -234 c47 -17 99 -61 129 -110 46 -76 33 -186 -31 -259 -51 -58 -107 -80
-191 -74 -76 5 -130 35 -173 98 -25 36 -30 55 -33 114 -3 60 0 78 20 115 40
74 126 129 204 131 17 0 51 -7 75 -15z"/>
<path d="M466 1224 c-13 -13 -16 -43 -16 -175 0 -160 7 -199 35 -199 28 0 35
39 35 199 0 132 -3 162 -16 175 -8 9 -17 16 -19 16 -2 0 -11 -7 -19 -16z"/>
<path d="M603 1233 c-16 -6 -17 -35 -1 -51 7 -7 36 -12 64 -12 71 0 98 -25 74
-71 -9 -15 -22 -19 -65 -19 -68 0 -85 -7 -85 -35 0 -28 17 -35 79 -35 61 0 90
-26 73 -65 -10 -22 -17 -25 -70 -25 -60 0 -82 -11 -82 -41 0 -21 20 -29 76
-29 55 0 106 20 128 51 20 29 20 97 1 123 -12 16 -12 21 0 40 20 27 19 96 -1
125 -9 13 -32 29 -50 37 -32 13 -116 18 -141 7z"/>
<path d="M1016 1224 c-22 -22 -24 -330 -2 -360 12 -15 18 -17 33 -8 16 10 18
30 21 187 2 166 1 177 -17 187 -15 7 -23 6 -35 -6z"/>
<path d="M1287 1228 c-15 -8 -17 -30 -17 -182 0 -181 5 -205 44 -190 14 5 16
29 16 189 0 191 -3 206 -43 183z"/>
<path d="M1423 1233 c-16 -6 -17 -35 -1 -51 7 -7 23 -12 37 -12 35 0 88 -44
101 -86 24 -71 -33 -164 -99 -164 -31 0 -51 -16 -51 -41 0 -41 94 -30 150 18
99 83 91 232 -15 304 -39 27 -98 42 -122 32z"/>
<path d="M1836 1224 c-22 -22 -24 -330 -2 -360 12 -15 18 -17 33 -8 16 10 18
30 21 187 2 166 1 177 -17 187 -15 7 -23 6 -35 -6z"/>
<path d="M1969 1224 c-9 -11 -10 -20 -2 -32 8 -13 28 -18 87 -20 97 -4 128 15
90 52 -22 23 -156 23 -175 0z"/>
<path d="M2356 1224 c-22 -22 -24 -330 -2 -360 12 -15 18 -17 33 -8 16 10 18
30 21 187 2 166 1 177 -17 187 -15 7 -23 6 -35 -6z"/>
<path d="M2627 1229 c-9 -6 -17 -16 -17 -22 0 -16 335 -351 354 -355 8 -2 20
6 26 18 11 20 -2 35 -152 187 -89 90 -170 168 -178 173 -9 5 -23 4 -33 -1z"/>
<path d="M2947 1228 c-24 -13 -25 -159 -1 -179 30 -25 49 1 52 72 5 99 -10
130 -51 107z"/>
<path d="M3217 1227 c-16 -11 -17 -31 -15 -186 3 -155 5 -175 21 -185 15 -9
21 -7 33 8 22 30 20 338 -2 360 -19 19 -16 19 -37 3z"/>
<path d="M3463 1233 c-16 -6 -17 -35 -1 -51 17 -17 339 -17 356 0 17 17 15 45
-4 52 -19 7 -333 7 -351 -1z"/>
<path d="M4023 1233 c-25 -9 -13 -49 26 -87 66 -65 114 -26 49 41 -38 40 -58
52 -75 46z"/>
<path d="M4259 1154 l-89 -88 0 -102 c0 -85 3 -103 16 -108 33 -13 44 13 44
96 l0 80 80 80 c44 44 80 86 80 93 0 8 -9 19 -21 25 -18 10 -30 1 -110 -76z"/>
<path d="M3617 1094 c-4 -4 -7 -58 -7 -120 0 -116 6 -133 45 -117 13 4 15 25
13 122 -3 108 -4 116 -23 119 -12 2 -24 0 -28 -4z"/>
<path d="M1969 1064 c-29 -36 38 -67 108 -50 25 7 31 34 11 54 -18 18 -103 15
-119 -4z"/>
<path d="M2622 1038 c-7 -7 -12 -41 -12 -89 0 -80 12 -105 44 -93 14 5 16 20
14 98 -2 72 -6 91 -18 94 -9 1 -21 -3 -28 -10z"/>
<path d="M1511 258 l-1 -78 35 0 c26 0 39 6 51 25 15 23 15 27 0 51 -13 19
-24 24 -44 22 -23 -3 -28 2 -33 27 -4 19 -7 3 -8 -47z m68 -12 c14 -16 4 -46
-14 -46 -40 0 -57 24 -33 48 16 16 33 15 47 -2z"/>
<path d="M1878 303 c-2 -23 -7 -27 -26 -25 -27 4 -62 -23 -62 -48 0 -26 33
-50 68 -50 l32 0 0 75 c0 75 -6 99 -12 48z m-8 -58 c10 -12 10 -18 0 -30 -27
-32 -71 -8 -56 30 3 8 14 15 24 15 11 0 25 -7 32 -15z"/>
<path d="M1760 300 c0 -15 -7 -20 -28 -20 -31 0 -62 -26 -62 -52 0 -25 35 -49
69 -46 l31 2 0 68 c0 37 -2 68 -5 68 -3 0 -5 -9 -5 -20z m-10 -55 c10 -12 10
-18 0 -30 -27 -32 -71 -8 -56 30 3 8 14 15 24 15 11 0 25 -7 32 -15z"/>
<path d="M2570 257 c0 -73 6 -84 32 -60 17 15 19 15 38 -2 16 -14 20 -15 20
-4 0 8 -5 20 -12 27 -8 8 -8 15 2 27 7 8 10 19 6 22 -4 4 -17 -5 -30 -20 -13
-15 -26 -27 -30 -27 -3 0 -6 23 -6 50 0 28 -4 50 -10 50 -6 0 -10 -28 -10 -63z"/>
<path d="M1968 273 c-14 -3 -18 -15 -18 -51 0 -50 16 -48 22 3 2 20 9 31 22
33 24 5 36 -9 46 -50 l8 -33 1 37 c2 55 -26 76 -81 61z"/>
<path d="M2086 262 c-9 -10 -16 -25 -16 -34 0 -23 33 -48 65 -48 23 0 26 -2
15 -15 -7 -8 -23 -15 -37 -15 -14 0 -21 -4 -18 -10 9 -15 42 -12 59 6 11 10
16 34 16 72 l0 57 -34 2 c-22 2 -39 -3 -50 -15z m64 -17 c10 -12 10 -18 0 -30
-27 -32 -71 -8 -56 30 3 8 14 15 24 15 11 0 25 -7 32 -15z"/>
<path d="M2278 272 c-14 -2 -18 -14 -18 -43 0 -21 5 -39 10 -39 6 0 10 14 10
30 0 60 59 46 61 -14 2 -28 2 -27 8 9 5 34 10 40 31 40 21 0 26 -6 31 -40 l6
-40 2 41 c0 23 -5 46 -11 51 -13 10 -97 13 -130 5z"/>
<path d="M2467 262 c-10 -10 -17 -25 -17 -34 0 -25 36 -50 67 -46 23 2 29 8
31 34 5 55 -47 84 -81 46z m58 -32 c0 -18 -6 -26 -23 -28 -24 -4 -38 18 -28
44 3 9 15 14 28 12 17 -2 23 -10 23 -28z"/>
<path d="M2707 262 c-22 -24 -21 -45 1 -65 21 -20 48 -22 58 -6 4 7 1 10 -7 7
-8 -3 -23 0 -34 6 -18 9 -16 11 19 16 44 6 54 20 31 44 -22 21 -48 20 -68 -2z
m58 -12 c4 -6 -7 -10 -25 -10 -18 0 -29 4 -25 10 3 6 15 10 25 10 10 0 22 -4
25 -10z"/>
<path d="M2894 255 c-15 -23 -15 -27 0 -50 18 -28 60 -34 70 -10 4 12 2 13
-12 7 -19 -10 -42 -5 -42 9 0 5 16 9 35 9 39 0 46 17 19 44 -23 23 -51 20 -70
-9z m56 0 c11 -13 8 -15 -15 -15 -23 0 -26 2 -15 15 7 8 14 15 15 15 1 0 8 -7
15 -15z"/>
<path d="M3017 262 c-10 -10 -17 -25 -17 -34 0 -25 35 -49 69 -46 28 2 31 6
31 34 0 57 -49 83 -83 46z m63 -17 c19 -23 -15 -59 -41 -44 -22 11 -24 30 -7
47 16 16 33 15 48 -3z"/>
<path d="M3140 265 c-16 -19 3 -45 32 -45 30 0 16 -24 -18 -31 -27 -6 -27 -7
9 -8 25 -1 40 4 43 14 8 20 -13 45 -37 45 -26 0 -24 15 4 28 22 11 22 11 1 11
-12 1 -27 -6 -34 -14z"/>
<path d="M3240 264 c0 -11 7 -29 15 -40 20 -26 19 -61 -2 -73 -10 -5 -15 -13
-11 -17 12 -12 35 14 62 72 29 61 30 64 17 64 -5 0 -14 -13 -20 -30 -5 -16
-12 -30 -15 -30 -3 0 -14 17 -25 38 -15 28 -20 32 -21 16z"/>
<path d="M1630 230 c0 -22 5 -40 10 -40 6 0 10 18 10 40 0 22 -4 40 -10 40 -5
0 -10 -18 -10 -40z"/>
<path d="M1910 230 c0 -22 5 -40 10 -40 6 0 10 18 10 40 0 22 -4 40 -10 40 -5
0 -10 -18 -10 -40z"/>
</g>
</svg>
